<?xml version="1.0" encoding="UTF-8"?>
<svg width="252px" height="519px" viewBox="0 0 252 519" version="1.1" xmlns="http://www.w3.org/2000/svg" xmlns:xlink="http://www.w3.org/1999/xlink">
    <title>编组</title>
    <g id="其他develop？" stroke="none" stroke-width="1" fill="none" fill-rule="evenodd">
        <g id="画框-5" transform="translate(-21677, -1091)">
            <g id="编组" transform="translate(21677.386, 1091.4136)">
                <path d="M73.4138928,0 L221.443476,-7.10542736e-15 C232.489171,1.0658141e-14 241.443476,8.954305 241.443476,20 C241.443476,22.4707281 240.985672,24.9200689 240.093246,27.2239943 L205.17005,117.383195 C202.187248,125.083723 194.778322,130.159201 186.520281,130.159201 L35.1994664,130.159201 C24.1537714,130.159201 15.1994664,121.204896 15.1994664,110.159201 C15.1994664,107.477546 15.7387577,104.823276 16.7852667,102.35425 L54.9996931,12.1950497 C58.1332149,4.80213962 65.3843176,7.10542736e-15 73.4138928,3.55271368e-15 Z" id="矩形-11" fill="#BAB6B6"></path>
                <path d="M73.4138928,258 L221.443476,258 C232.489171,258 241.443476,266.954305 241.443476,278 C241.443476,280.470728 240.985672,282.920069 240.093246,285.223994 L205.17005,375.383195 C202.187248,383.083723 194.778322,388.159201 186.520281,388.159201 L35.1994664,388.159201 C24.1537714,388.159201 15.1994664,379.204896 15.1994664,368.159201 C15.1994664,365.477546 15.7387577,362.823276 16.7852667,360.35425 L54.9996931,270.19505 C58.1332149,262.80214 65.3843176,258 73.4138928,258 Z" id="矩形-11" fill="#BAB6B6"></path>
                <path d="M68.4138928,0 L216.443476,-7.10542736e-15 C227.489171,1.0658141e-14 236.443476,8.954305 236.443476,20 C236.443476,22.4707281 235.985672,24.9200689 235.093246,27.2239943 L200.17005,117.383195 C197.187248,125.083723 189.778322,130.159201 181.520281,130.159201 L30.1994664,130.159201 C19.1537714,130.159201 10.1994664,121.204896 10.1994664,110.159201 C10.1994664,107.477546 10.7387577,104.823276 11.7852667,102.35425 L49.9996931,12.1950497 C53.1332149,4.80213962 60.3843176,7.10542736e-15 68.4138928,3.55271368e-15 Z" id="矩形-11" fill="#C05B5C"></path>
                <path d="M68.4138928,129.807941 L216.443476,129.807941 C227.489171,129.807941 236.443476,138.762246 236.443476,149.807941 C236.443476,152.278669 235.985672,154.72801 235.093246,157.031935 L200.17005,247.191136 C197.187248,254.891664 189.778322,259.967142 181.520281,259.967142 L30.1994664,259.967142 C19.1537714,259.967142 10.1994664,251.012837 10.1994664,239.967142 C10.1994664,237.285487 10.7387577,234.631217 11.7852667,232.162191 L49.9996931,142.002991 C53.1332149,134.610081 60.3843176,129.807941 68.4138928,129.807941 Z" id="矩形-11" fill="#5C6CB8" transform="translate(122.8192, 194.8875) scale(-1, 1) translate(-122.8192, -194.8875)"></path>
                <path d="M68.7754238,387.840799 L216.805007,387.840799 C227.850702,387.840799 236.805007,396.795104 236.805007,407.840799 C236.805007,410.311528 236.347203,412.760868 235.454777,415.064794 L200.531581,505.223994 C197.548779,512.924523 190.139853,518 181.881812,518 L30.5609974,518 C19.5153024,518 10.5609974,509.045695 10.5609974,498 C10.5609974,495.318345 11.1002886,492.664076 12.1467977,490.19505 L50.3612241,400.035849 C53.4947458,392.642939 60.7458485,387.840799 68.7754238,387.840799 Z" id="矩形-11" fill="#F7821B" transform="translate(123.1808, 452.9204) scale(-1, 1) translate(-123.1808, -452.9204)"></path>
                <path d="M68.4138928,257.241347 L216.443476,257.241347 C227.489171,257.241347 236.443476,266.195652 236.443476,277.241347 C236.443476,279.712075 235.985672,282.161415 235.093246,284.465341 L200.17005,374.624541 C197.187248,382.32507 189.778322,387.400547 181.520281,387.400547 L30.1994664,387.400547 C19.1537714,387.400547 10.1994664,378.446242 10.1994664,367.400547 C10.1994664,364.718893 10.7387577,362.064623 11.7852667,359.595597 L49.9996931,269.436396 C53.1332149,262.043486 60.3843176,257.241347 68.4138928,257.241347 Z" id="矩形-11" fill="#5FB553"></path>
                <ellipse id="椭圆形-20" fill="#FFFFFF" cx="123.114015" cy="64.6715347" rx="66.5" ry="32.4195688"></ellipse>
                <ellipse id="椭圆形-20" fill="#FFFFFF" cx="123.114015" cy="195.348152" rx="66.5" ry="32.4195688"></ellipse>
                <ellipse id="椭圆形-20" fill="#FFFFFF" cx="123.114015" cy="322.15578" rx="66.5" ry="32.4195688"></ellipse>
                <ellipse id="椭圆形-20" fill="#FFFFFF" cx="123.114015" cy="452.832397" rx="66.5" ry="32.4195688"></ellipse>
            </g>
        </g>
    </g>
</svg>
