<?xml version="1.0" encoding="UTF-8"?>
<svg width="156px" height="135px" viewBox="0 0 156 135" version="1.1" xmlns="http://www.w3.org/2000/svg" xmlns:xlink="http://www.w3.org/1999/xlink">
    <title>编组</title>
    <g id="其他develop？" stroke="none" stroke-width="1" fill="none" fill-rule="evenodd">
        <g id="画框-5" transform="translate(-30677, -4904)">
            <g id="编组" transform="translate(30677.5168, 4904.4027)">
                <path d="M45.5564143,4.54747351e-13 L108.971538,4.65405492e-13 C113.256701,4.65405492e-13 117.216675,2.2850458 119.361009,5.99509347 L151.057237,60.8347519 C153.204609,64.5500579 153.204609,69.1292591 151.057237,72.844565 L119.361009,127.684223 C117.216675,131.394271 113.256701,133.679317 108.971538,133.679317 L45.5564143,133.679317 C41.2712516,133.679317 37.3112773,131.394271 35.1669438,127.684223 L3.47071609,72.844565 C1.32334344,69.1292591 1.32334344,64.5500579 3.47071609,60.8347519 L35.1669438,5.99509347 C37.3112773,2.2850458 41.2712516,4.63629135e-13 45.5564143,4.63629135e-13 Z" id="多边形" fill="color(display-p3 0.431 0.357 0.667)"></path>
                <ellipse id="椭圆形-2" stroke="color(display-p3 1.000 1.000 1.000)" stroke-width="3" fill="color(display-p3 0.910 0.533 0.227)" cx="49.7840825" cy="66.7253996" rx="12.2971386" ry="12.2821053"></ellipse>
                <ellipse id="椭圆形-2" stroke="color(display-p3 1.000 1.000 1.000)" stroke-width="3" fill="color(display-p3 0.290 0.376 0.698)" cx="77.3783598" cy="66.7253996" rx="12.2971386" ry="12.2821053"></ellipse>
                <ellipse id="椭圆形-2" stroke="color(display-p3 1.000 1.000 1.000)" stroke-width="3" fill="color(display-p3 0.702 0.380 0.373)" cx="104.972637" cy="66.7253996" rx="12.2971386" ry="12.2821053"></ellipse>
                <ellipse id="椭圆形-2" stroke="color(display-p3 1.000 1.000 1.000)" stroke-width="3" fill="color(display-p3 0.702 0.380 0.373)" cx="22.1898053" cy="66.7253996" rx="12.2971386" ry="12.2821053"></ellipse>
                <ellipse id="椭圆形-2" stroke="color(display-p3 1.000 1.000 1.000)" stroke-width="3" fill="color(display-p3 0.290 0.376 0.698)" cx="132.566914" cy="66.7253996" rx="12.2971386" ry="12.2821053"></ellipse>
                <ellipse id="椭圆形-2" stroke="color(display-p3 1.000 1.000 1.000)" stroke-width="3" fill="color(display-p3 0.290 0.376 0.698)" cx="63.5812212" cy="42.9988031" rx="12.2971386" ry="12.2821053"></ellipse>
                <ellipse id="椭圆形-2" stroke="color(display-p3 1.000 1.000 1.000)" stroke-width="3" fill="color(display-p3 0.702 0.380 0.373)" cx="91.1754984" cy="42.9988031" rx="12.2971386" ry="12.2821053"></ellipse>
                <ellipse id="椭圆形-2" stroke="color(display-p3 1.000 1.000 1.000)" stroke-width="3" fill="color(display-p3 0.910 0.533 0.227)" cx="118.769776" cy="42.9988031" rx="12.2971386" ry="12.2821053"></ellipse>
                <ellipse id="椭圆形-2" stroke="color(display-p3 1.000 1.000 1.000)" stroke-width="3" fill="color(display-p3 0.290 0.376 0.698)" cx="49.7840825" cy="114.340979" rx="12.2971386" ry="12.2821053"></ellipse>
                <ellipse id="椭圆形-2" stroke="color(display-p3 1.000 1.000 1.000)" stroke-width="3" fill="color(display-p3 0.910 0.533 0.227)" cx="35.9869439" cy="90.4519961" rx="12.2971386" ry="12.2821053"></ellipse>
                <ellipse id="椭圆形-2" stroke="color(display-p3 1.000 1.000 1.000)" stroke-width="3" fill="color(display-p3 0.953 0.890 0.769)" cx="63.5812212" cy="90.4519961" rx="12.2971386" ry="12.2821053"></ellipse>
                <ellipse id="椭圆形-2" stroke="color(display-p3 1.000 1.000 1.000)" stroke-width="3" fill="color(display-p3 0.910 0.533 0.227)" cx="91.1754984" cy="90.4519961" rx="12.2971386" ry="12.2821053"></ellipse>
                <ellipse id="椭圆形-2" stroke="color(display-p3 1.000 1.000 1.000)" stroke-width="3" fill="color(display-p3 0.082 0.522 0.141)" cx="118.769776" cy="90.4519961" rx="12.2971386" ry="12.2821053"></ellipse>
                <ellipse id="椭圆形-2" stroke="color(display-p3 1.000 1.000 1.000)" stroke-width="3" fill="color(display-p3 0.702 0.380 0.373)" cx="77.3783598" cy="114.340979" rx="12.2971386" ry="12.2821053"></ellipse>
                <ellipse id="椭圆形-2" stroke="color(display-p3 1.000 1.000 1.000)" stroke-width="3" fill="color(display-p3 0.290 0.376 0.698)" cx="104.972637" cy="114.340979" rx="12.2971386" ry="12.2821053"></ellipse>
                <ellipse id="椭圆形-2" stroke="color(display-p3 1.000 1.000 1.000)" stroke-width="3" fill="color(display-p3 0.082 0.522 0.141)" cx="49.7840825" cy="19.1098206" rx="12.2971386" ry="12.2821053"></ellipse>
                <ellipse id="椭圆形-2" stroke="color(display-p3 1.000 1.000 1.000)" stroke-width="3" fill="color(display-p3 0.290 0.376 0.698)" cx="35.9869439" cy="42.9988031" rx="12.2971386" ry="12.2821053"></ellipse>
                <ellipse id="椭圆形-2" stroke="color(display-p3 1.000 1.000 1.000)" stroke-width="3" fill="color(display-p3 0.953 0.890 0.769)" cx="77.3783598" cy="19.1098206" rx="12.2971386" ry="12.2821053"></ellipse>
                <ellipse id="椭圆形-2" stroke="color(display-p3 1.000 1.000 1.000)" stroke-width="3" fill="color(display-p3 0.082 0.522 0.141)" cx="104.972637" cy="19.1098206" rx="12.2971386" ry="12.2821053"></ellipse>
            </g>
        </g>
    </g>
</svg>